<svg width="50" height="50" viewBox="0 0 50 50" fill="none" xmlns="http://www.w3.org/2000/svg">
<path d="M48.0964 1.7162C46.9011 0.635675 45.28 0.0286497 43.5897 0.0286497C41.8994 0.0286497 40.2783 0.635675 39.083 1.7162L25.0027 16.2656L10.9223 1.721C10.3322 1.17879 9.62925 0.747552 8.85391 0.45218C8.07858 0.156808 7.24623 0.00314334 6.40487 4.60995e-05C5.56352 -0.00305114 4.72981 0.144484 3.95184 0.434138C3.17387 0.723792 2.46703 1.14983 1.8721 1.68768C1.27716 2.22554 0.805912 2.86457 0.48552 3.5679C0.165128 4.27123 0.00193788 5.02495 0.0053638 5.78559C0.00878971 6.54622 0.178763 7.29872 0.50548 7.99967C0.832197 8.70062 1.30919 9.33615 1.90895 9.86961L16.5576 24.9952L1.90364 40.1304C1.30388 40.6638 0.826886 41.2994 0.500169 42.0003C0.173452 42.7013 0.00347876 43.4538 5.28423e-05 44.2144C-0.00337307 44.975 0.159817 45.7288 0.480209 46.4321C0.800601 47.1354 1.27185 47.7745 1.86679 48.3123C2.46172 48.8502 3.16856 49.2762 3.94653 49.5659C4.7245 49.8555 5.55821 50.003 6.39956 50C7.24092 49.9969 8.07327 49.8432 8.8486 49.5478C9.62394 49.2524 10.3269 48.8212 10.917 48.279L25.0027 33.7248L39.083 48.279C39.6731 48.8212 40.3761 49.2524 41.1514 49.5478C41.9267 49.8432 42.7591 49.9969 43.6004 50C44.4418 50.003 45.2755 49.8555 46.0535 49.5659C46.8314 49.2762 47.5383 48.8502 48.1332 48.3123C48.7282 47.7745 49.1994 47.1354 49.5198 46.4321C49.8402 45.7288 50.0034 44.975 49.9999 44.2144C49.9965 43.4538 49.8265 42.7013 49.4998 42.0003C49.1731 41.2994 48.6961 40.6638 48.0964 40.1304L33.4477 24.9952L48.0964 9.86961C48.689 9.33446 49.1591 8.69897 49.4798 7.99945C49.8006 7.29994 49.9657 6.55014 49.9657 5.7929C49.9657 5.03567 49.8006 4.28587 49.4798 3.58636C49.1591 2.88684 48.689 2.25135 48.0964 1.7162Z" fill="#D62828"/>
</svg>
